<svg version="1.1" xmlns="http://www.w3.org/2000/svg" xmlns:xlink="http://www.w3.org/1999/xlink" x="0px" y="0px"
	 viewBox="0 0 188 136" >
<g id="XMLID_184_">
	<path class="st0" d="M94,136c-5.7,0-56.2-0.1-70.3-3.9c-9.6-2.6-17.2-10.2-19.8-19.9C0,97.8,0,69.2,0,68s0-29.8,3.9-44.2
		C6.5,14.1,14,6.5,23.7,3.9C37.8,0.1,88.3,0,94,0s56.2,0.1,70.3,3.9c9.6,2.6,17.2,10.2,19.8,19.9l0,0c3.8,14.4,3.9,43,3.9,44.2
		s0,29.8-3.9,44.2c-2.6,9.7-10.2,17.3-19.8,19.9C150.2,135.9,99.7,136,94,136z M94,12c-15.1,0-56.6,0.6-67.2,3.5
		C21.3,17,17,21.3,15.5,26.9C12,39.8,12,67.7,12,68c0,0.3,0,28.2,3.5,41.1c1.5,5.6,5.8,9.9,11.3,11.4c10.6,2.9,52.1,3.5,67.2,3.5
		s56.6-0.6,67.2-3.5c5.5-1.5,9.8-5.9,11.3-11.4C176,96.2,176,68.3,176,68c0-0.3,0-28.2-3.5-41.1l0,0c-1.5-5.6-5.8-9.9-11.3-11.4
		C150.6,12.6,109.1,12,94,12z"/>
	<path class="st0" d="M70,104.5v-73L134.1,68L70,104.5z M82,52.1v31.7L109.9,68L82,52.1z"/>
</g>
</svg>
